<?xml version="1.0" encoding="UTF-8"?>
<svg version="1.1" xmlns="http://www.w3.org/2000/svg" width="256" height="256">
<path d="M0 0 C1.25642031 -0.00807831 1.25642031 -0.00807831 2.53822285 -0.01631981 C5.32552554 -0.03054819 8.11234987 -0.02350841 10.89967346 -0.01637268 C12.90593343 -0.02207891 14.91219015 -0.02904415 16.91844177 -0.03717041 C22.35439634 -0.05508854 27.79018937 -0.05393597 33.22616458 -0.04822803 C37.7689095 -0.04513436 42.31162347 -0.05123059 46.85436398 -0.05726677 C57.57310669 -0.07130587 68.29176968 -0.0697557 79.01051331 -0.05836487 C90.05891688 -0.04688298 101.10707774 -0.06096202 112.15544933 -0.08776134 C121.65123147 -0.10993005 131.14693748 -0.1165531 140.64274365 -0.11068493 C146.30979511 -0.10731713 151.97669098 -0.10971888 157.64372063 -0.12693596 C162.97327659 -0.14242165 168.30247337 -0.13843129 173.63201523 -0.11963081 C175.58427297 -0.11594952 177.53655741 -0.11903995 179.48879051 -0.1295166 C182.16123238 -0.1427598 184.83249092 -0.13114997 187.50488281 -0.11352539 C188.27085468 -0.1231304 189.03682655 -0.1327354 189.82600969 -0.14263147 C199.55248226 -0.01134169 206.61798641 4.68973323 213.31593323 11.38768005 C219.29999472 17.69520433 220.7691364 24.69659686 220.70361328 33.07174683 C220.71169159 34.32816714 220.71169159 34.32816714 220.71993309 35.60996968 C220.73416147 38.39727237 220.72712169 41.1840967 220.71998596 43.97142029 C220.72569219 45.97768025 220.73265743 47.98393697 220.74078369 49.9901886 C220.75870182 55.42614317 220.75754926 60.86193619 220.75184131 66.29791141 C220.74874764 70.84065632 220.75484388 75.38337029 220.76088005 79.9261108 C220.77491915 90.64485351 220.77336898 101.36351651 220.76197815 112.08226013 C220.75049626 123.13066371 220.7645753 134.17882456 220.79137462 145.22719616 C220.81354333 154.72297829 220.82016638 164.2186843 220.81429821 173.71449047 C220.81093041 179.38154194 220.81333217 185.04843781 220.83054924 190.71546745 C220.84603493 196.04502341 220.84204458 201.3742202 220.82324409 206.70376205 C220.8195628 208.65601979 220.82265323 210.60830424 220.83312988 212.56053734 C220.84637308 215.23297921 220.83476325 217.90423775 220.81713867 220.57662964 C220.83154618 221.72558744 220.83154618 221.72558744 220.84624475 222.89775652 C220.71495497 232.62422909 216.01388005 239.68973323 209.31593323 246.38768005 C203.00840895 252.37174155 196.00701642 253.84088323 187.63186646 253.77536011 C186.37544614 253.78343841 186.37544614 253.78343841 185.09364361 253.79167992 C182.30634092 253.8059083 179.51951658 253.79886852 176.73219299 253.79173279 C174.72593303 253.79743902 172.71967631 253.80440426 170.71342468 253.81253052 C165.27747011 253.83044865 159.84167709 253.82929608 154.40570188 253.82358813 C149.86295696 253.82049446 145.32024299 253.8265907 140.77750248 253.83262688 C130.05875977 253.84666597 119.34009678 253.8451158 108.62135315 253.83372498 C97.57294957 253.82224309 86.52478872 253.83632213 75.47641712 253.86312145 C65.98063499 253.88529015 56.48492898 253.89191321 46.98912281 253.88604504 C41.32207134 253.88267724 35.65517547 253.88507899 29.98814583 253.90229607 C24.65858987 253.91778176 19.32939308 253.9137914 13.99985123 253.89499092 C12.04759349 253.89130963 10.09530904 253.89440005 8.14307594 253.90487671 C5.47063407 253.9181199 2.79937553 253.90651007 0.12698364 253.8888855 C-1.02197416 253.90329301 -1.02197416 253.90329301 -2.19414324 253.91799158 C-11.92061581 253.7867018 -18.98611995 249.08562687 -25.68406677 242.38768005 C-31.66812827 236.08015578 -33.13726995 229.07876325 -33.07174683 220.70361328 C-33.07713236 219.86599974 -33.0825179 219.0283862 -33.08806664 218.16539043 C-33.10229502 215.37808774 -33.09525524 212.59126341 -33.08811951 209.80393982 C-33.09382574 207.79767985 -33.10079098 205.79142313 -33.10891724 203.78517151 C-33.12683537 198.34921694 -33.1256828 192.91342391 -33.11997485 187.4774487 C-33.11688118 182.93470378 -33.12297742 178.39198981 -33.1290136 173.8492493 C-33.14305269 163.1305066 -33.14150252 152.4118436 -33.13011169 141.69309998 C-33.11862981 130.6446964 -33.13270885 119.59653555 -33.15950817 108.54816395 C-33.18167687 99.05238181 -33.18829993 89.55667581 -33.18243176 80.06086963 C-33.17906396 74.39381817 -33.18146571 68.7269223 -33.19868279 63.05989265 C-33.21416848 57.73033669 -33.21017812 52.40113991 -33.19137764 47.07159805 C-33.18769635 45.11934031 -33.19078677 43.16705587 -33.20126343 41.21482277 C-33.21450662 38.5423809 -33.20289679 35.87112236 -33.18527222 33.19873047 C-33.19487722 32.4327586 -33.20448223 31.66678673 -33.2143783 30.87760359 C-33.08308852 21.15113102 -28.38201359 14.08562687 -21.68406677 7.38768005 C-15.3765425 1.40361856 -8.37514997 -0.06552312 0 0 Z " fill="#11FCC8" transform="translate(34.68406677246094,0.6123199462890625)"/>
<path d="M0 0 C0 39.93 0 79.86 0 121 C-39.93 121 -79.86 121 -121 121 C-121 81.4 -121 41.8 -121 1 C-109.67010179 5.53195928 -98.66495567 10.43782956 -87.86328125 16.125 C-83.2127927 18.53985815 -78.46831106 20.35809818 -73.515625 22.0703125 C-67.32 24.36 -67.32 24.36 -66 27 C-63.6859378 27.73075648 -61.35171131 28.40138258 -59 29 C-59 28.34 -59 27.68 -59 27 C-57.68 27 -56.36 27 -55 27 C-55 26.34 -55 25.68 -55 25 C-53.70990357 24.49596232 -52.41786211 23.99690074 -51.125 23.5 C-50.04605469 23.08234375 -50.04605469 23.08234375 -48.9453125 22.65625 C-47 22 -47 22 -45 22 C-45 21.34 -45 20.68 -45 20 C-42.03 19.67 -39.06 19.34 -36 19 C-36 18.34 -36 17.68 -36 17 C-35.34 17 -34.68 17 -34 17 C-34 16.34 -34 15.68 -34 15 C-31.36 14.67 -28.72 14.34 -26 14 C-26 13.34 -26 12.68 -26 12 C-25.21625 11.71125 -24.4325 11.4225 -23.625 11.125 C-20.90328368 10.15087746 -20.90328368 10.15087746 -19 8 C-17.265625 7.21875 -17.265625 7.21875 -15.25 6.5 C-14.54359375 6.24605469 -13.8371875 5.99210937 -13.109375 5.73046875 C-10.41364144 4.7969462 -7.71312171 3.88176456 -5 3 C-5 2.34 -5 1.68 -5 1 C-3 0 -3 0 0 0 Z " fill="#000403" transform="translate(189,69)"/>
<path d="M0 0 C1.25642031 -0.00807831 1.25642031 -0.00807831 2.53822285 -0.01631981 C5.32552554 -0.03054819 8.11234987 -0.02350841 10.89967346 -0.01637268 C12.90593343 -0.02207891 14.91219015 -0.02904415 16.91844177 -0.03717041 C22.35439634 -0.05508854 27.79018937 -0.05393597 33.22616458 -0.04822803 C37.7689095 -0.04513436 42.31162347 -0.05123059 46.85436398 -0.05726677 C57.57310669 -0.07130587 68.29176968 -0.0697557 79.01051331 -0.05836487 C90.05891688 -0.04688298 101.10707774 -0.06096202 112.15544933 -0.08776134 C121.65123147 -0.10993005 131.14693748 -0.1165531 140.64274365 -0.11068493 C146.30979511 -0.10731713 151.97669098 -0.10971888 157.64372063 -0.12693596 C162.97327659 -0.14242165 168.30247337 -0.13843129 173.63201523 -0.11963081 C175.58427297 -0.11594952 177.53655741 -0.11903995 179.48879051 -0.1295166 C182.16123238 -0.1427598 184.83249092 -0.13114997 187.50488281 -0.11352539 C188.27085468 -0.1231304 189.03682655 -0.1327354 189.82600969 -0.14263147 C199.55248226 -0.01134169 206.61798641 4.68973323 213.31593323 11.38768005 C219.29999472 17.69520433 220.7691364 24.69659686 220.70361328 33.07174683 C220.71169159 34.32816714 220.71169159 34.32816714 220.71993309 35.60996968 C220.73416147 38.39727237 220.72712169 41.1840967 220.71998596 43.97142029 C220.72569219 45.97768025 220.73265743 47.98393697 220.74078369 49.9901886 C220.75870182 55.42614317 220.75754926 60.86193619 220.75184131 66.29791141 C220.74874764 70.84065632 220.75484388 75.38337029 220.76088005 79.9261108 C220.77491915 90.64485351 220.77336898 101.36351651 220.76197815 112.08226013 C220.75049626 123.13066371 220.7645753 134.17882456 220.79137462 145.22719616 C220.81354333 154.72297829 220.82016638 164.2186843 220.81429821 173.71449047 C220.81093041 179.38154194 220.81333217 185.04843781 220.83054924 190.71546745 C220.84603493 196.04502341 220.84204458 201.3742202 220.82324409 206.70376205 C220.8195628 208.65601979 220.82265323 210.60830424 220.83312988 212.56053734 C220.84637308 215.23297921 220.83476325 217.90423775 220.81713867 220.57662964 C220.83154618 221.72558744 220.83154618 221.72558744 220.84624475 222.89775652 C220.71495497 232.62422909 216.01388005 239.68973323 209.31593323 246.38768005 C203.00840895 252.37174155 196.00701642 253.84088323 187.63186646 253.77536011 C186.37544614 253.78343841 186.37544614 253.78343841 185.09364361 253.79167992 C182.30634092 253.8059083 179.51951658 253.79886852 176.73219299 253.79173279 C174.72593303 253.79743902 172.71967631 253.80440426 170.71342468 253.81253052 C165.27747011 253.83044865 159.84167709 253.82929608 154.40570188 253.82358813 C149.86295696 253.82049446 145.32024299 253.8265907 140.77750248 253.83262688 C130.05875977 253.84666597 119.34009678 253.8451158 108.62135315 253.83372498 C97.57294957 253.82224309 86.52478872 253.83632213 75.47641712 253.86312145 C65.98063499 253.88529015 56.48492898 253.89191321 46.98912281 253.88604504 C41.32207134 253.88267724 35.65517547 253.88507899 29.98814583 253.90229607 C24.65858987 253.91778176 19.32939308 253.9137914 13.99985123 253.89499092 C12.04759349 253.89130963 10.09530904 253.89440005 8.14307594 253.90487671 C5.47063407 253.9181199 2.79937553 253.90651007 0.12698364 253.8888855 C-1.02197416 253.90329301 -1.02197416 253.90329301 -2.19414324 253.91799158 C-11.92061581 253.7867018 -18.98611995 249.08562687 -25.68406677 242.38768005 C-31.66812827 236.08015578 -33.13726995 229.07876325 -33.07174683 220.70361328 C-33.07713236 219.86599974 -33.0825179 219.0283862 -33.08806664 218.16539043 C-33.10229502 215.37808774 -33.09525524 212.59126341 -33.08811951 209.80393982 C-33.09382574 207.79767985 -33.10079098 205.79142313 -33.10891724 203.78517151 C-33.12683537 198.34921694 -33.1256828 192.91342391 -33.11997485 187.4774487 C-33.11688118 182.93470378 -33.12297742 178.39198981 -33.1290136 173.8492493 C-33.14305269 163.1305066 -33.14150252 152.4118436 -33.13011169 141.69309998 C-33.11862981 130.6446964 -33.13270885 119.59653555 -33.15950817 108.54816395 C-33.18167687 99.05238181 -33.18829993 89.55667581 -33.18243176 80.06086963 C-33.17906396 74.39381817 -33.18146571 68.7269223 -33.19868279 63.05989265 C-33.21416848 57.73033669 -33.21017812 52.40113991 -33.19137764 47.07159805 C-33.18769635 45.11934031 -33.19078677 43.16705587 -33.20126343 41.21482277 C-33.21450662 38.5423809 -33.20289679 35.87112236 -33.18527222 33.19873047 C-33.19487722 32.4327586 -33.20448223 31.66678673 -33.2143783 30.87760359 C-33.08308852 21.15113102 -28.38201359 14.08562687 -21.68406677 7.38768005 C-15.3765425 1.40361856 -8.37514997 -0.06552312 0 0 Z M-23.68406677 17.38768005 C-29.43246406 25.61445397 -28.24643216 35.9391902 -28.2016449 45.50242615 C-28.20707043 47.44647749 -28.2141955 49.39052472 -28.22288513 51.33456421 C-28.24107247 56.59710186 -28.23406921 61.85932472 -28.22136879 67.12186766 C-28.21121447 72.64070682 -28.22064149 78.15951972 -28.22691345 83.67835999 C-28.23418399 92.94707558 -28.22461897 102.21566354 -28.20555115 111.48435974 C-28.18379647 122.18227803 -28.19082606 132.8798912 -28.21285677 143.57780206 C-28.231043 152.77895502 -28.23355295 161.98001642 -28.22310209 171.18118155 C-28.21688323 176.66942123 -28.21598696 182.15751779 -28.22924805 187.64574814 C-28.24085238 192.80872598 -28.23269727 197.97131287 -28.20967102 203.13424873 C-28.2044078 205.02277161 -28.20585651 206.91132771 -28.21472168 208.79983711 C-28.30219575 226.0731549 -28.30219575 226.0731549 -19.99656677 240.82518005 C-11.51294097 249.23614097 -1.45239703 248.96557549 9.72928238 248.91833496 C10.65627316 248.91401962 11.58326393 248.90970428 12.53834534 248.90525818 C14.49387126 248.91068361 16.44939309 248.91780863 18.40490723 248.92649841 C23.69836787 248.94468573 28.99151559 248.93768282 34.28498149 248.92498207 C39.83498502 248.91482919 45.38496242 248.92425423 50.93496704 248.93052673 C60.25495698 248.93779707 69.57482 248.92823212 78.89479065 248.90916443 C89.6552123 248.88740333 100.41533067 248.8944441 111.17574495 248.91647005 C120.42868638 248.93464911 129.68153674 248.93716992 138.93449026 248.92671537 C144.45455585 248.92049342 149.97447912 248.91960896 155.49453545 248.93286133 C160.68623667 248.94445542 165.87754875 248.93632906 171.06920815 248.9132843 C172.96943899 248.90801594 174.86970284 248.90947874 176.76992035 248.91833496 C192.19610096 249.01077219 192.19610096 249.01077219 205.93702698 242.4931488 C213.50493257 234.5020915 215.46255796 227.28486259 215.46983337 216.33685303 C215.47421563 215.53109319 215.47859788 214.72533336 215.48311293 213.89515656 C215.49645722 211.19775636 215.50266992 208.5003888 215.50880432 205.80296326 C215.51670867 203.86773533 215.52497783 201.93250887 215.53358459 199.99728394 C215.55976406 193.6443573 215.57510723 187.2914242 215.58937073 180.9384613 C215.5947319 178.74918807 215.60010942 176.55991487 215.60550308 174.37064171 C215.62712497 165.26282096 215.64586114 156.15500196 215.65712547 147.04716206 C215.67336266 134.00561939 215.70654305 120.96437471 215.76352632 107.92294437 C215.80225175 98.74654237 215.82176121 89.57022 215.82704604 80.39373845 C215.83069561 74.91600572 215.84267559 69.43859113 215.87514877 63.96094704 C215.90527534 58.80540975 215.91152473 53.65038237 215.89976501 48.49477577 C215.89954467 46.60742286 215.90781698 44.72004596 215.92541885 42.83277512 C216.03127798 30.82459827 215.41321527 21.94829883 207.19093323 12.51268005 C197.60099027 3.85592676 185.02639941 4.80798615 172.95826721 4.85423279 C171.01229704 4.84716544 169.06633237 4.83841701 167.12037659 4.828125 C161.86216886 4.80571615 156.60426334 4.80855034 151.34602618 4.81744647 C146.94736523 4.82257289 142.54876024 4.81525063 138.15010506 4.8079744 C127.77116748 4.79100333 117.39237704 4.79451419 107.01344299 4.81126404 C96.32223285 4.82819513 85.63143073 4.81233074 74.94026512 4.78004116 C65.7424803 4.75331904 56.54482229 4.74607599 47.34700257 4.75455624 C41.8615777 4.75947622 36.37639843 4.75731954 30.89100456 4.73676872 C25.73368735 4.71836965 20.57695612 4.72442213 15.4196701 4.74896812 C13.53233441 4.75396197 11.64495373 4.75052349 9.75765419 4.73781967 C-3.85885753 4.65344595 -14.80099261 5.83382834 -23.68406677 17.38768005 Z " fill="#000000" transform="translate(34.68406677246094,0.6123199462890625)"/>
</svg>
